<svg width="116" height="32" viewBox="0 0 116 32" fill="none" xmlns="http://www.w3.org/2000/svg">
<path fill-rule="evenodd" clip-rule="evenodd" d="M5.56665 21.667C2.98783 17.684 3.49671 12.5909 6.4913 9.20085C6.51787 9.30622 6.54556 9.41209 6.57437 9.51845C8.4588 16.4744 14.456 20.9025 19.9695 19.4089C21.8323 18.9042 23.4016 17.7882 24.5903 16.2632C24.5711 17.1418 24.4402 18.0139 24.2023 18.8572C22.928 20.6111 21.0141 21.9071 18.7193 22.3594C16.9991 22.6984 15.2971 22.5177 13.7756 21.9261C15.6928 23.2695 18.1334 23.8599 20.6115 23.3714C21.0523 23.2845 21.479 23.1665 21.8898 23.0201C21.3056 23.6594 20.6309 24.2352 19.8699 24.7278C15.075 27.8324 8.67118 26.462 5.56665 21.667ZM22.9307 10.4246C23.9194 11.9516 24.4543 13.6418 24.5692 15.3367C23.3867 16.8285 21.8356 17.9201 19.9993 18.4176C14.5974 19.881 8.73125 15.66 6.72364 8.94655C7.28065 8.35708 7.9164 7.82414 8.62745 7.36376C8.76139 7.27705 8.89658 7.19382 9.03292 7.11406C9.26892 8.63989 9.74788 10.1925 10.4853 11.7013C11.5391 13.8575 12.988 15.6523 14.6413 16.9946C14.1559 16.3034 13.7145 15.5586 13.3265 14.7649C11.8923 11.8305 11.4358 8.73022 11.843 5.98365C15.9863 4.99307 20.4835 6.64485 22.9307 10.4246Z" fill="#06B6D4"/>
<path d="M45.2682 13.6562H41.5352C41.4671 13.1733 41.3279 12.7443 41.1176 12.3693C40.9074 11.9886 40.6375 11.6648 40.308 11.3977C39.9784 11.1307 39.5977 10.9261 39.1659 10.7841C38.7398 10.642 38.2767 10.571 37.7767 10.571C36.8733 10.571 36.0864 10.7955 35.4159 11.2443C34.7455 11.6875 34.2256 12.3352 33.8563 13.1875C33.4869 14.0341 33.3023 15.0625 33.3023 16.2727C33.3023 17.517 33.4869 18.5625 33.8563 19.4091C34.2313 20.2557 34.754 20.8949 35.4244 21.3267C36.0949 21.7585 36.8705 21.9744 37.7512 21.9744C38.2455 21.9744 38.7029 21.9091 39.1233 21.7784C39.5495 21.6477 39.9273 21.4574 40.2568 21.2074C40.5864 20.9517 40.8591 20.642 41.075 20.2784C41.2966 19.9148 41.45 19.5 41.5352 19.0341L45.2682 19.0511C45.1716 19.8523 44.9301 20.625 44.5438 21.3693C44.1631 22.108 43.6489 22.7699 43.0012 23.3551C42.3591 23.9347 41.5921 24.3949 40.7 24.7358C39.8137 25.071 38.8108 25.2386 37.6915 25.2386C36.1347 25.2386 34.7426 24.8864 33.5154 24.1818C32.2938 23.4773 31.3279 22.4574 30.6176 21.1222C29.9131 19.7869 29.5608 18.1705 29.5608 16.2727C29.5608 14.3693 29.9188 12.75 30.6347 11.4148C31.3506 10.0795 32.3222 9.0625 33.5494 8.36364C34.7767 7.65909 36.1574 7.30682 37.6915 7.30682C38.7029 7.30682 39.6404 7.44886 40.504 7.73295C41.3733 8.01705 42.1432 8.43182 42.8137 8.97727C43.4841 9.51704 44.0296 10.179 44.45 10.9631C44.8762 11.7472 45.1489 12.6449 45.2682 13.6562ZM50.2519 29.9091C49.7916 29.9091 49.3598 29.8722 48.9564 29.7983C48.5587 29.7301 48.2291 29.642 47.9678 29.5341L48.786 26.8239C49.2121 26.9545 49.5956 27.0256 49.9365 27.0369C50.2831 27.0483 50.5814 26.9688 50.8314 26.7983C51.0871 26.6278 51.2945 26.3381 51.4536 25.929L51.6666 25.375L46.9706 11.9091H50.7888L53.499 21.5227H53.6354L56.3712 11.9091H60.2149L55.1269 26.4148C54.8825 27.1193 54.5502 27.733 54.1297 28.2557C53.7149 28.7841 53.1894 29.1903 52.553 29.4744C51.9166 29.7642 51.1496 29.9091 50.2519 29.9091ZM62.0729 29.9091V11.9091H65.6524V14.108H65.8144C65.9735 13.7557 66.2036 13.3977 66.5047 13.0341C66.8115 12.6648 67.2093 12.358 67.6979 12.1136C68.1922 11.8636 68.8058 11.7386 69.5388 11.7386C70.4933 11.7386 71.374 11.9886 72.1808 12.4886C72.9877 12.983 73.6325 13.7301 74.1155 14.7301C74.5985 15.7244 74.8399 16.9716 74.8399 18.4716C74.8399 19.9318 74.6041 21.1648 74.1325 22.1705C73.6666 23.1705 73.0303 23.929 72.2235 24.446C71.4223 24.9574 70.5246 25.2131 69.5303 25.2131C68.8257 25.2131 68.2263 25.0966 67.732 24.8636C67.2433 24.6307 66.8428 24.3381 66.5303 23.9858C66.2178 23.6278 65.9791 23.267 65.8144 22.9034H65.7036V29.9091H62.0729ZM65.6269 18.4545C65.6269 19.233 65.7348 19.9119 65.9507 20.4915C66.1666 21.071 66.4791 21.5227 66.8882 21.8466C67.2973 22.1648 67.7945 22.3239 68.3797 22.3239C68.9706 22.3239 69.4706 22.1619 69.8797 21.8381C70.2888 21.5085 70.5985 21.054 70.8087 20.4744C71.0246 19.8892 71.1325 19.2159 71.1325 18.4545C71.1325 17.6989 71.0274 17.0341 70.8172 16.4602C70.607 15.8864 70.2973 15.4375 69.8882 15.1136C69.4791 14.7898 68.9763 14.6278 68.3797 14.6278C67.7888 14.6278 67.2888 14.7841 66.8797 15.0966C66.4763 15.4091 66.1666 15.8523 65.9507 16.4261C65.7348 17 65.6269 17.6761 65.6269 18.4545ZM80.8911 17.4318V25H77.2604V7.54545H80.7888V14.2188H80.9422C81.2377 13.446 81.7149 12.8409 82.374 12.4034C83.0331 11.9602 83.8598 11.7386 84.8541 11.7386C85.7632 11.7386 86.5558 11.9375 87.232 12.3352C87.9138 12.7273 88.4422 13.2926 88.8172 14.0312C89.1979 14.7642 89.3854 15.642 89.3797 16.6648V25H85.749V17.3125C85.7547 16.5057 85.5502 15.8778 85.1354 15.429C84.7263 14.9801 84.1524 14.7557 83.4138 14.7557C82.9195 14.7557 82.482 14.8608 82.1013 15.071C81.7263 15.2812 81.4308 15.5881 81.2149 15.9915C81.0047 16.3892 80.8968 16.8693 80.8911 17.4318ZM98.2029 25.2557C96.8563 25.2557 95.6972 24.983 94.7256 24.4375C93.7597 23.8864 93.0154 23.108 92.4926 22.1023C91.9699 21.0909 91.7085 19.8949 91.7085 18.5142C91.7085 17.1676 91.9699 15.9858 92.4926 14.9688C93.0154 13.9517 93.7512 13.1591 94.7 12.5909C95.6546 12.0227 96.7739 11.7386 98.058 11.7386C98.9216 11.7386 99.7256 11.8778 100.47 12.1562C101.22 12.429 101.873 12.8409 102.43 13.392C102.993 13.9432 103.43 14.6364 103.743 15.4716C104.055 16.3011 104.211 17.2727 104.211 18.3864V19.3835H93.1574V17.1335H100.794C100.794 16.6108 100.68 16.1477 100.453 15.7443C100.226 15.3409 99.9102 15.0256 99.5068 14.7983C99.1091 14.5653 98.646 14.4489 98.1176 14.4489C97.5665 14.4489 97.0779 14.5767 96.6517 14.8324C96.2313 15.0824 95.9017 15.4205 95.6631 15.8466C95.4244 16.267 95.3023 16.7358 95.2966 17.2528V19.392C95.2966 20.0398 95.4159 20.5994 95.6546 21.071C95.8989 21.5426 96.2426 21.9062 96.6858 22.1619C97.129 22.4176 97.6546 22.5455 98.2625 22.5455C98.6659 22.5455 99.0352 22.4886 99.3705 22.375C99.7057 22.2614 99.9926 22.0909 100.231 21.8636C100.47 21.6364 100.652 21.358 100.777 21.0284L104.135 21.25C103.964 22.0568 103.615 22.7614 103.086 23.3636C102.564 23.9602 101.888 24.4261 101.058 24.7614C100.234 25.0909 99.2824 25.2557 98.2029 25.2557ZM106.581 25V11.9091H110.101V14.1932H110.237C110.476 13.3807 110.876 12.767 111.439 12.3523C112.001 11.9318 112.649 11.7216 113.382 11.7216C113.564 11.7216 113.76 11.733 113.97 11.7557C114.18 11.7784 114.365 11.8097 114.524 11.8494V15.071C114.353 15.0199 114.118 14.9744 113.816 14.9347C113.515 14.8949 113.24 14.875 112.99 14.875C112.456 14.875 111.978 14.9915 111.558 15.2244C111.143 15.4517 110.814 15.7699 110.569 16.179C110.331 16.5881 110.211 17.0597 110.211 17.5938V25H106.581Z" fill="#06B6D4"/>
</svg>
